<?xml version="1.0" encoding="UTF-8" standalone="no"?>
<svg
   xmlns:dc="http://purl.org/dc/elements/1.1/"
   xmlns:cc="http://creativecommons.org/ns#"
   xmlns:rdf="http://www.w3.org/1999/02/22-rdf-syntax-ns#"
   xmlns:svg="http://www.w3.org/2000/svg"
   xmlns="http://www.w3.org/2000/svg"
   xmlns:sodipodi="http://sodipodi.sourceforge.net/DTD/sodipodi-0.dtd"
   xmlns:inkscape="http://www.inkscape.org/namespaces/inkscape"
   width="48"
   height="48"
   viewBox="0 0 48 48"
   fill="none"
   version="1.1"
   id="svg14"
   sodipodi:docname="mode.svg"
   inkscape:version="1.0.2 (e86c870879, 2021-01-15)">
  <metadata
     id="metadata20">
    <rdf:RDF>
      <cc:Work
         rdf:about="">
        <dc:format>image/svg+xml</dc:format>
        <dc:type
           rdf:resource="http://purl.org/dc/dcmitype/StillImage" />
      </cc:Work>
    </rdf:RDF>
  </metadata>
  <defs
     id="defs18" />
  <sodipodi:namedview
     pagecolor="#f1f1f1"
     bordercolor="#f1f1f1"
     borderopacity="1"
     objecttolerance="10"
     gridtolerance="10"
     guidetolerance="10"
     inkscape:pageopacity="0"
     inkscape:pageshadow="2"
     inkscape:window-width="2560"
     inkscape:window-height="1017"
     id="namedview16"
     showgrid="false"
     inkscape:zoom="8.84375"
     inkscape:cx="9.6996894"
     inkscape:cy="23.702061"
     inkscape:window-x="-8"
     inkscape:window-y="-8"
     inkscape:window-maximized="1"
     inkscape:current-layer="svg14" />
  <path
     d="M5 8C5 6.89543 5.89543 6 7 6H41C42.1046 6 43 6.89543 43 8V32C43 33.1046 42.1046 34 41 34H7C5.89543 34 5 33.1046 5 32V8Z"
     stroke="#f1f1f1"
     stroke-width="4"
     stroke-linecap="round"
     stroke-linejoin="round"
     id="path2" />
  <path
     d="M5 26C5 24.8954 5.89543 24 7 24H41C42.1046 24 43 24.8954 43 26V32C43 33.1046 42.1046 34 41 34H7C5.89543 34 5 33.1046 5 32V26Z"
     fill="#f1f1f1"
     stroke="#f1f1f1"
     stroke-width="4"
     stroke-linecap="round"
     stroke-linejoin="round"
     id="path4" />
  <path
     d="M22 12L18 17"
     stroke="#f1f1f1"
     stroke-width="4"
     stroke-linecap="round"
     stroke-linejoin="round"
     id="path6" />
  <path
     d="M28 14L25 18"
     stroke="#f1f1f1"
     stroke-width="4"
     stroke-linecap="round"
     stroke-linejoin="round"
     id="path8" />
  <circle
     cx="24"
     cy="29"
     r="2"
     fill="#303030"
     id="circle10" />
  <path
     d="M17 34L14 42H34L31 34"
     stroke="#f1f1f1"
     stroke-width="4"
     stroke-linecap="round"
     stroke-linejoin="round"
     id="path12" />
</svg>
